<svg viewBox="0 0 1024 1024" xmlns="http://www.w3.org/2000/svg"><path d="m464 512a48 48 0 1 0 96 0 48 48 0 1 0 -96 0zm200 0a48 48 0 1 0 96 0 48 48 0 1 0 -96 0zm-400 0a48 48 0 1 0 96 0 48 48 0 1 0 -96 0zm661.2-173.6c-22.6-53.7-55-101.9-96.3-143.3a444.35 444.35 0 0 0 -143.3-96.3c-55-23.1-113.4-34.8-173.6-34.8h-2c-60.6.3-119.3 12.3-174.5 35.9a445.35 445.35 0 0 0 -142 96.5c-40.9 41.3-73 89.3-95.2 142.8-23 55.4-34.6 114.3-34.3 174.9a449.4 449.4 0 0 0 48 199.9v152a46 46 0 0 0 46 46h152.1a449.4 449.4 0 0 0 199.9 48h2.1c59.9 0 118-11.6 172.7-34.3a444.48 444.48 0 0 0 142.8-95.2c41.3-40.9 73.8-88.7 96.5-142 23.6-55.2 35.6-113.9 35.9-174.5.3-60.9-11.5-120-34.8-175.6zm-151.1 438c-70.1 69.4-163.1 107.6-262.1 107.6h-1.7c-60.3-.3-120.2-15.3-173.1-43.5l-8.4-4.5h-140.8v-140.8l-4.5-8.4c-28.2-52.9-43.2-112.8-43.5-173.1-.4-99.7 37.7-193.3 107.6-263.8 69.8-70.5 163.1-109.5 262.8-109.9h1.7c50 0 98.5 9.7 144.2 28.9 44.6 18.7 84.6 45.6 119 80 34.3 34.3 61.3 74.4 80 119 19.4 46.2 29.1 95.2 28.9 145.8-.6 99.6-39.7 192.9-110.1 262.7z"/></svg>